<?xml version="1.0" standalone="no"?>
<!DOCTYPE svg PUBLIC "-//W3C//DTD SVG 20010904//EN"
 "http://www.w3.org/TR/2001/REC-SVG-20010904/DTD/svg10.dtd">
<svg version="1.0" xmlns="http://www.w3.org/2000/svg"
 width="640.000000pt" height="795.000000pt" viewBox="0 0 640.000000 795.000000"
 preserveAspectRatio="xMidYMid meet">
<metadata>
Created by potrace 1.15, written by Peter Selinger 2001-2017
</metadata>
<g transform="translate(0.000000,795.000000) scale(0.100000,-0.100000)"
fill="#000000" stroke="none">
<path d="M2738 7931 c-66 -9 -100 -33 -200 -139 -89 -94 -131 -169 -179 -314
-61 -185 -79 -271 -79 -376 0 -87 14 -177 29 -186 4 -3 7 77 6 177 0 158 2
187 19 217 10 19 36 83 57 143 47 131 76 188 123 247 20 25 53 67 73 93 48 65
91 85 201 93 86 6 93 6 137 -20 25 -15 60 -40 78 -56 41 -35 86 -123 89 -172
3 -40 14 -39 20 2 2 14 5 -34 6 -105 1 -72 7 -146 12 -165 6 -19 10 -84 10
-145 0 -101 -3 -117 -33 -190 -60 -147 -128 -227 -223 -260 -32 -11 -45 -10
-78 1 -70 25 -126 63 -126 85 0 15 -4 19 -16 15 -9 -4 -22 -2 -29 4 -10 8 -13
6 -11 -7 2 -26 -65 -46 -161 -47 -67 -1 -86 3 -110 19 -41 31 -81 118 -91 200
l-8 70 -13 -66 c-15 -76 -6 -124 34 -183 13 -20 22 -42 19 -49 -3 -8 -1 -89 5
-182 7 -141 6 -175 -6 -209 -14 -40 -31 -118 -54 -261 -8 -46 -9 -133 -6 -250
10 -288 42 -473 102 -595 21 -42 35 -88 39 -130 9 -81 16 -111 25 -105 4 2 16
-32 25 -77 24 -111 87 -280 157 -423 32 -66 67 -142 78 -170 l20 -50 0 41 c1
52 -19 120 -68 225 -80 175 -237 586 -227 596 2 2 11 -8 20 -22 9 -14 21 -23
25 -20 5 3 23 -16 39 -43 62 -95 196 -235 287 -300 164 -115 286 -193 323
-206 38 -13 132 -29 132 -22 0 3 -24 12 -52 22 -29 9 -102 41 -163 72 -178 88
-410 289 -533 460 -18 26 -38 46 -44 44 -6 -2 -8 4 -4 13 3 9 2 13 -4 10 -6
-3 -10 1 -10 10 0 9 -15 49 -34 88 -74 157 -100 336 -92 642 8 340 26 416 115
506 l58 57 -55 -24 c-30 -13 -56 -23 -57 -22 -1 2 3 40 8 86 7 53 7 106 1 151
l-9 68 35 -15 c24 -10 56 -13 102 -10 37 3 65 1 62 -3 -15 -24 62 16 103 53
l22 21 40 -32 c85 -67 146 -77 236 -37 58 26 175 127 175 151 0 6 13 42 30 81
16 38 33 99 37 134 l8 64 18 -28 c16 -23 19 -53 22 -182 1 -85 -1 -154 -6
-154 -10 0 -73 -120 -66 -126 2 -2 18 16 36 41 38 52 51 62 61 45 5 -9 12 -4
21 16 18 36 66 50 229 66 129 13 155 9 199 -27 16 -14 56 -41 87 -60 32 -19
54 -36 48 -37 -5 0 -13 -2 -19 -3 -5 -2 -18 -3 -27 -4 -19 -1 -88 -58 -88 -72
0 -5 23 9 51 31 28 22 55 38 59 35 5 -3 20 -1 35 5 44 17 98 -3 183 -67 106
-80 191 -113 308 -120 l91 -6 -3 -31 c-1 -17 -5 -39 -9 -49 -12 -29 1 -137 24
-198 35 -93 78 -132 210 -195 64 -30 138 -66 165 -79 40 -20 45 -21 31 -5 -9
10 -42 28 -73 40 -105 40 -224 112 -259 158 -45 60 -73 156 -73 254 0 80 0 81
38 116 51 48 132 84 195 86 44 1 52 -2 55 -19 7 -33 44 -66 109 -96 84 -39
110 -76 145 -208 41 -152 48 -186 53 -271 4 -66 12 -89 61 -190 111 -228 142
-341 151 -545 5 -121 3 -151 -15 -220 -24 -96 -38 -129 -92 -214 -22 -36 -40
-69 -40 -75 0 -6 21 10 46 34 40 40 45 42 40 20 -3 -14 -12 -83 -21 -155 -9
-71 -17 -143 -19 -160 -2 -16 1 -196 7 -400 16 -580 -9 -751 -177 -1216 -45
-124 -74 -286 -86 -479 -20 -315 -32 -457 -46 -540 -15 -94 -16 -117 -3 -80 5
16 6 4 2 -35 -9 -96 -147 -631 -192 -747 l-42 -106 -132 -135 c-119 -122 -140
-139 -217 -176 -111 -53 -191 -65 -385 -58 -235 9 -302 33 -515 185 -109 78
-129 106 -229 320 -84 181 -115 312 -108 467 4 99 9 125 56 264 63 188 106
283 166 367 25 35 44 64 42 64 -16 0 -141 -183 -185 -270 -29 -58 -51 -94 -48
-80 3 14 22 111 42 215 42 222 49 246 143 469 40 93 70 170 68 173 -3 2 -10
-11 -17 -29 -7 -18 -42 -91 -78 -163 -35 -71 -72 -152 -82 -180 l-17 -50 -7
65 c-18 164 -50 366 -76 477 -16 68 -36 180 -45 250 -8 71 -22 180 -30 244
-18 138 -18 132 -4 123 16 -9 5 35 -37 147 -73 195 -171 545 -209 744 l-15 80
5 -115 c3 -76 13 -150 30 -218 29 -118 30 -126 10 -92 -8 14 -14 23 -15 20 0
-3 33 -100 74 -215 82 -232 107 -334 131 -535 8 -74 22 -169 30 -210 17 -91
77 -427 100 -565 9 -55 20 -163 24 -240 7 -129 6 -147 -16 -230 -35 -130 -72
-315 -62 -309 12 7 11 0 -6 -71 -42 -175 18 -547 99 -614 9 -8 38 -59 65 -115
61 -126 134 -209 223 -256 135 -70 159 -81 246 -104 192 -51 457 -59 574 -18
93 33 178 90 262 176 43 45 71 69 61 54 -36 -58 -5 -25 42 45 92 133 156 284
202 480 16 67 43 169 59 227 16 58 35 137 41 175 15 92 29 309 20 315 -4 3 0
46 7 95 8 50 18 170 24 267 10 185 39 405 66 498 9 30 36 103 60 163 55 132
99 299 121 460 20 140 23 415 9 767 -11 295 9 566 50 662 83 198 86 432 8 680
-32 101 -95 240 -130 285 -20 26 -30 60 -44 146 -10 62 -31 168 -45 237 -31
150 -66 211 -143 253 -27 14 -74 53 -106 87 -31 33 -61 60 -66 60 -15 0 -26
30 -50 133 -19 85 -29 109 -73 172 -104 148 -168 225 -207 251 -37 24 -46 26
-102 20 -35 -3 -80 -15 -100 -25 -42 -20 -46 -15 -31 38 6 23 7 24 15 5 15
-34 -1 78 -19 131 -12 37 -34 68 -83 117 -37 37 -63 65 -56 61 6 -4 5 1 -3 10
-7 9 -37 28 -65 42 -47 23 -64 26 -152 24 -68 -2 -104 -7 -116 -16 -14 -13
-17 -10 -28 21 -14 43 -65 89 -116 106 -89 30 -261 -8 -329 -72 -39 -35 -45
-35 -45 0 0 35 -22 66 -41 60 -8 -3 -38 16 -67 42 -103 92 -176 117 -294 101z
m822 -195 c22 -14 47 -37 56 -52 16 -24 16 -27 -6 -66 -27 -48 -44 -158 -45
-288 0 -105 18 -174 62 -241 20 -30 26 -54 29 -109 2 -38 2 -70 0 -70 -2 0
-23 7 -46 15 -23 8 -70 14 -104 14 -33 -1 -50 -3 -36 -6 98 -15 98 -16 10 -29
-47 -6 -111 -16 -142 -21 l-57 -10 -6 56 c-4 31 -10 70 -15 86 -4 17 -11 50
-13 74 l-5 43 26 -25 c35 -32 65 -47 95 -47 30 0 128 42 145 63 29 35 54 168
34 181 -9 5 -52 -117 -52 -146 0 -18 -48 -43 -103 -52 -34 -6 -45 -3 -93 30
-59 41 -75 68 -120 204 -23 67 -25 87 -21 193 5 137 12 151 107 195 101 47
236 51 300 8z m321 -86 c43 -12 166 -134 196 -195 13 -26 23 -71 27 -132 6
-85 5 -94 -16 -125 -13 -19 -32 -59 -43 -91 -17 -52 -23 -58 -69 -78 -75 -33
-173 -37 -230 -9 -65 31 -88 64 -125 176 -29 87 -32 107 -28 174 9 122 30 204
67 249 l32 41 76 0 c43 0 93 -5 113 -10z m456 -417 c11 -10 38 -40 59 -68 21
-27 70 -86 107 -130 88 -102 95 -118 112 -226 7 -49 19 -96 25 -104 10 -12 9
-15 -3 -15 -33 0 -123 -41 -155 -70 -23 -21 -43 -30 -65 -29 -32 0 -32 0 11
17 23 9 42 20 42 24 0 4 -22 8 -50 8 -27 0 -83 5 -124 11 -71 11 -77 14 -128
64 -91 89 -107 112 -122 169 -15 55 -12 121 5 132 5 3 9 16 9 29 0 35 43 126
73 153 53 49 167 68 204 35z m-322 -253 c-12 -37 15 -127 56 -188 32 -48 40
-67 37 -97 l-3 -38 -52 42 c-83 65 -114 81 -161 81 -53 0 -75 11 -129 63 -40
38 -43 45 -43 95 0 48 2 53 18 47 9 -5 49 -11 87 -15 55 -6 82 -4 125 10 72
23 72 23 65 0z"/>
<path d="M3160 6684 c119 -44 236 -173 332 -364 53 -107 60 -102 22 13 -32 96
-104 207 -182 279 -58 53 -96 71 -177 82 l-40 6 45 -16z"/>
<path d="M3671 5629 c-3 -47 34 -199 74 -308 63 -170 111 -260 198 -377 124
-166 213 -233 337 -254 72 -11 80 -11 195 20 66 17 158 48 205 68 80 34 93 36
215 40 148 5 145 20 -5 21 -87 1 -106 -3 -225 -43 -71 -25 -185 -56 -253 -69
-160 -32 -181 -28 -296 62 -91 71 -290 348 -330 458 -10 26 -29 77 -43 113
-14 36 -36 115 -48 175 -13 61 -24 103 -24 94z"/>
<path d="M3687 5320 c2 -30 8 -77 14 -103 13 -67 11 -105 -6 -163 -21 -72
-146 -257 -229 -341 -81 -80 -53 -75 38 8 68 62 187 236 211 308 18 56 17 104
-4 231 -17 98 -29 129 -24 60z"/>
<path d="M4039 4723 c-18 -44 -23 -263 -10 -366 7 -51 30 -168 51 -262 21 -93
48 -223 60 -288 13 -65 24 -116 26 -114 7 6 -25 206 -61 382 -44 218 -58 356
-54 533 2 78 3 142 1 142 -1 0 -7 -12 -13 -27z"/>
<path d="M4103 3366 c-17 -23 -60 -81 -94 -131 -35 -49 -111 -139 -169 -200
-58 -60 -128 -137 -155 -170 -28 -33 -80 -92 -117 -132 -77 -82 -151 -191
-143 -211 3 -7 0 -22 -5 -33 -6 -10 -9 -19 -6 -19 4 0 44 54 124 170 l25 35
-29 -30 c-16 -17 -41 -46 -56 -65 -15 -19 -28 -30 -28 -23 0 21 79 110 250
283 90 91 188 198 219 238 125 164 229 318 220 326 -2 2 -18 -15 -36 -38z"/>
</g>
</svg>
